<svg width="38" height="38" viewBox="0 0 38 38" fill="none" xmlns="http://www.w3.org/2000/svg">
<rect width="38" height="38" rx="8" fill="url(#paint0_radial_686_2829)"/>
<path d="M25 31H13C11.4087 31 9.88258 30.3679 8.75736 29.2426C7.63214 28.1174 7 26.5913 7 25V13C7 11.4087 7.63214 9.88258 8.75736 8.75736C9.88258 7.63214 11.4087 7 13 7H25C26.5913 7 28.1174 7.63214 29.2426 8.75736C30.3679 9.88258 31 11.4087 31 13V25C31 26.5913 30.3679 28.1174 29.2426 29.2426C28.1174 30.3679 26.5913 31 25 31ZM13 9.4C12.0456 9.40132 11.1307 9.78103 10.4559 10.4559C9.78103 11.1307 9.40132 12.0456 9.4 13V25C9.40132 25.9544 9.78103 26.8693 10.4559 27.5441C11.1307 28.219 12.0456 28.5987 13 28.6H25C25.9544 28.5987 26.8693 28.219 27.5441 27.5441C28.219 26.8693 28.5987 25.9544 28.6 25V13C28.5987 12.0456 28.219 11.1307 27.5441 10.4559C26.8693 9.78103 25.9544 9.40132 25 9.4H13Z" fill="white"/>
<path d="M19 25.8C17.655 25.8 16.3403 25.4011 15.2221 24.6539C14.1038 23.9068 13.2322 22.8447 12.7176 21.6022C12.2029 20.3597 12.0682 18.9924 12.3306 17.6733C12.593 16.3543 13.2406 15.1426 14.1916 14.1916C15.1426 13.2406 16.3543 12.593 17.6733 12.3306C18.9924 12.0682 20.3597 12.2029 21.6022 12.7176C22.8447 13.2322 23.9068 14.1038 24.6539 15.2221C25.4011 16.3403 25.8 17.655 25.8 19C25.7986 20.803 25.0818 22.5319 23.8068 23.8068C22.5319 25.0818 20.803 25.7986 19 25.8ZM19 14.6C18.1297 14.6 17.279 14.858 16.5554 15.3415C15.8319 15.825 15.2679 16.5122 14.9349 17.3161C14.6019 18.1201 14.5147 19.0048 14.6845 19.8584C14.8543 20.7119 15.2733 21.4959 15.8887 22.1112C16.504 22.7266 17.288 23.1456 18.1416 23.3154C18.9951 23.4852 19.8798 23.398 20.6838 23.065C21.4878 22.732 22.1749 22.168 22.6584 21.4445C23.1419 20.7209 23.4 19.8702 23.4 19C23.3986 17.8334 22.9346 16.715 22.1098 15.8901C21.2849 15.0653 20.1665 14.6013 19 14.6Z" fill="white"/>
<path d="M25.8001 13.8C26.4628 13.8 27.0001 13.2628 27.0001 12.6C27.0001 11.9373 26.4628 11.4 25.8001 11.4C25.1374 11.4 24.6001 11.9373 24.6001 12.6C24.6001 13.2628 25.1374 13.8 25.8001 13.8Z" fill="white"/>
<defs>
<radialGradient id="paint0_radial_686_2829" cx="0" cy="0" r="1" gradientUnits="userSpaceOnUse" gradientTransform="translate(38.7645 0.771876) scale(87.7533)">
<stop stop-color="#F9ED32"/>
<stop offset="0.36" stop-color="#EE2A7B"/>
<stop offset="0.44" stop-color="#D22A8A"/>
<stop offset="0.6" stop-color="#8B2AB2"/>
<stop offset="0.83" stop-color="#1B2AF0"/>
<stop offset="0.88" stop-color="#002AFF"/>
</radialGradient>
</defs>
</svg>
