<svg width="24" height="24" viewBox="0 0 24 24" fill="none" xmlns="http://www.w3.org/2000/svg">
<path d="M13.7774 12.6665L13.4661 13.2058H14.0887L13.7774 12.6665ZM12.0001 14.4118L12.3114 13.8725H11.6887L12.0001 14.4118Z" fill="#EDECEC"/>
<path d="M0 16.6668H24V7.3335H0V16.6668ZM0.196 5.00016H23.8047C23.6055 4.50785 23.2639 4.08622 22.8236 3.78928C22.3833 3.49235 21.8644 3.33364 21.3333 3.3335H2.66667C2.1357 3.33369 1.61688 3.49242 1.1767 3.78936C0.736518 4.08629 0.395031 4.50791 0.196 5.00016Z" fill="#EEEEEE"/>
<path d="M14.0887 10.7939H13.466L13.7774 11.3332L14.0887 10.7939ZM10.534 10.7939H9.91138L10.2227 11.3332L10.534 10.7939ZM12.696 13.2059L13.3927 11.9999L12.696 10.7939H11.304L10.6074 11.9999L11.304 13.2059H12.696ZM10.2227 12.6666L9.91138 13.2059H10.534L10.2227 12.6666ZM12 9.58789L11.6887 10.1272H12.3114L12 9.58789Z" fill="#EDECEC"/>
<path d="M0.196 5C0.0667023 5.31755 0.000142925 5.65714 0 6L0 7.33333H24V6C24 5.646 23.9293 5.30933 23.804 5H0.196Z" fill="#0038B8"/>
<path d="M0.196045 19H23.8047C23.6056 19.4923 23.264 19.9139 22.8237 20.2109C22.3834 20.5078 21.8644 20.6665 21.3334 20.6667H2.66671C2.13574 20.6665 1.61692 20.5077 1.17674 20.2108C0.736563 19.9139 0.395076 19.4923 0.196045 19Z" fill="#EEEEEE"/>
<path d="M0.196 19.0002C0.0667023 18.6827 0.000142925 18.3431 0 18.0002L0 16.6669H24V18.0002C24 18.3542 23.9293 18.6909 23.804 19.0002H0.196ZM10.9187 13.8729L12 15.7455L13.0813 13.8729H15.2433L14.1627 12.0002L15.244 10.1275H13.082L12 8.25488L10.9187 10.1275H8.75667L9.83733 12.0002L8.756 13.8729H10.9187ZM12 14.4122L11.6887 13.8729H12.3113L12 14.4122ZM14.0887 10.7942L13.7773 11.3335L13.466 10.7949L14.0887 10.7942ZM13.7773 12.6669L14.0887 13.2056H13.466L13.7773 12.6669ZM12 9.58822L12.3113 10.1275H11.6887L12 9.58822ZM11.304 10.7942H12.6967L13.3927 12.0002L12.6967 13.2062H11.304L10.6073 12.0002L11.304 10.7942ZM10.534 10.7942L10.2227 11.3335L9.91133 10.7949L10.534 10.7942ZM10.2227 12.6669L10.534 13.2056H9.91133L10.2227 12.6669Z" fill="#0038B8"/>
</svg>
