<svg width="24" height="24" viewBox="0 0 24 24" fill="none" xmlns="http://www.w3.org/2000/svg">
<path d="M24 18.0002C24 18.7074 23.719 19.3857 23.219 19.8858C22.7189 20.3859 22.0406 20.6668 21.3333 20.6668H2.66667C1.95942 20.6668 1.28115 20.3859 0.781049 19.8858C0.280952 19.3857 0 18.7074 0 18.0002V6.00016C0 5.29292 0.280952 4.61464 0.781049 4.11454C1.28115 3.61445 1.95942 3.3335 2.66667 3.3335H21.3333C22.0406 3.3335 22.7189 3.61445 23.219 4.11454C23.719 4.61464 24 5.29292 24 6.00016V18.0002Z" fill="#EEEEEE"/>
<path d="M14.2939 8.72317C13.4248 8.1148 12.3497 7.87655 11.305 8.06084C10.2603 8.24512 9.33161 8.83684 8.72318 9.70584C8.43589 10.1408 8.32967 10.6706 8.42715 11.1827C8.52463 11.6948 8.8181 12.1485 9.2451 12.4475C9.6721 12.7464 10.1989 12.8669 10.7134 12.7833C11.2279 12.6997 11.6895 12.4186 11.9999 11.9998C12.1505 11.7847 12.3421 11.6013 12.5636 11.4602C12.7852 11.3191 13.0323 11.223 13.291 11.1774C13.5497 11.1318 13.8148 11.1376 14.0712 11.1945C14.3277 11.2514 14.5704 11.3582 14.7855 11.5088C15.0007 11.6595 15.184 11.8511 15.3251 12.0726C15.4663 12.2941 15.5624 12.5413 15.6079 12.8C15.6535 13.0587 15.6477 13.3238 15.5909 13.5802C15.534 13.8366 15.4272 14.0794 15.2765 14.2945C15.5779 13.8642 15.7915 13.3787 15.9052 12.8658C16.0189 12.3529 16.0304 11.8227 15.9392 11.3053C15.8479 10.7879 15.6557 10.2936 15.3734 9.85058C15.091 9.40753 14.7242 9.02444 14.2939 8.72317Z" fill="#C60C30"/>
<path d="M14.7852 11.5091C14.3507 11.2048 13.8132 11.0856 13.2909 11.1776C12.7686 11.2696 12.3042 11.5654 11.9998 11.9997C11.6902 12.4207 11.2282 12.7038 10.7125 12.7886C10.1969 12.8733 9.66855 12.7529 9.24051 12.4531C8.81246 12.1534 8.5187 11.698 8.42202 11.1845C8.32534 10.671 8.43343 10.14 8.72317 9.70508C8.41304 10.1349 8.19144 10.6221 8.07124 11.1384C7.95105 11.6546 7.93465 12.1896 8.02301 12.7122C8.11137 13.2349 8.30272 13.7347 8.58594 14.1828C8.86917 14.6308 9.23861 15.0181 9.67281 15.3221C10.107 15.6261 10.5973 15.8408 11.1152 15.9537C11.6331 16.0666 12.1682 16.0754 12.6896 15.9796C13.2109 15.8839 13.708 15.6855 14.152 15.396C14.596 15.1064 14.978 14.7315 15.2758 14.2931C15.4265 14.0781 15.5334 13.8355 15.5903 13.5792C15.6472 13.3229 15.653 13.0579 15.6075 12.7994C15.5619 12.5408 15.4658 12.2938 15.3247 12.0724C15.1836 11.851 15.0003 11.6596 14.7852 11.5091Z" fill="#003478"/>
<path d="M16.2227 17.048L17.5081 15.516L18.0187 15.9446L16.7334 17.4766L16.2227 17.048ZM17.9361 15.006L19.2214 13.4746L19.7321 13.9033L18.4467 15.4346L17.9361 15.006ZM17.2441 17.9066L18.5294 16.3753L19.0401 16.804L17.7547 18.3353L17.2441 17.9066ZM18.9587 15.8626L20.2454 14.3313L20.7561 14.7606L19.4694 16.2913L18.9587 15.8626ZM18.2647 18.764L19.5514 17.2326L20.0614 17.6613L18.7754 19.1926L18.2647 18.764ZM19.9787 16.7206L21.2634 15.1873L21.7747 15.616L20.4901 17.1493L19.9787 16.7206ZM19.9814 7.27931L20.4921 6.85064L21.7787 8.38331L21.2674 8.81197L19.9814 7.27931ZM18.2667 5.23531L18.7774 4.80664L20.0627 6.33931L19.5514 6.76731L18.2667 5.23531ZM17.2447 6.09397L17.7554 5.66531L20.7554 9.23997L20.2447 9.66864L17.2447 6.09397ZM16.2234 6.94997L16.7347 6.52131L18.0194 8.05331L17.5087 8.48131L16.2234 6.94997ZM17.9367 8.99331L18.4474 8.56464L19.7341 10.096L19.2241 10.5246L17.9367 8.99331ZM4.26672 13.9026L4.77739 13.474L7.77672 17.0493L7.26539 17.478L4.26672 13.9026ZM3.24672 14.76L3.75672 14.332L5.04272 15.864L4.53139 16.2926L3.24672 14.76ZM4.95806 16.804L5.46872 16.3753L6.75539 17.9066L6.24472 18.3353L4.95806 16.804ZM2.22406 15.6166L2.73472 15.188L5.73472 18.7626L5.22339 19.1913L2.22406 15.6166ZM2.22339 8.38197L5.22206 4.80731L5.73339 5.23531L2.73339 8.81064L2.22339 8.38197ZM3.24472 9.23997L6.24472 5.66464L6.75539 6.09331L3.75539 9.66797L3.24472 9.23997ZM4.26672 10.0966L7.26672 6.52131L7.77739 6.94997L4.77739 10.5253L4.26672 10.0966Z" fill="#292F33"/>
</svg>
