<svg width="140" height="44" viewBox="0 0 140 44" fill="none" xmlns="http://www.w3.org/2000/svg">
<path d="M8.42424 7.67898L8.30918 11.0625H6.77509V9H6.16146V7.67898H8.42424ZM0.348955 9V0.272727H1.866V7.6875H5.78646V0.272727H7.31628V9H0.348955ZM9.71224 9V0.272727H15.3884V1.59801H11.2932V3.96733H15.0943V5.29261H11.2932V7.67472H15.4225V9H9.71224ZM17.0013 9V0.272727H18.5823V3.96733H22.6263V0.272727H24.2115V9H22.6263V5.29261H18.5823V9H17.0013ZM25.5475 1.59801V0.272727H32.5105V1.59801H29.8131V9H28.2449V1.59801H25.5475ZM33.8529 9V0.272727H37.1256C37.796 0.272727 38.3585 0.397727 38.8131 0.647727C39.2705 0.897727 39.6156 1.24148 39.8486 1.67898C40.0844 2.11364 40.2023 2.60795 40.2023 3.16193C40.2023 3.72159 40.0844 4.21875 39.8486 4.65341C39.6128 5.08807 39.2648 5.4304 38.8046 5.6804C38.3443 5.92756 37.7776 6.05114 37.1043 6.05114H34.9352V4.75142H36.8912C37.2833 4.75142 37.6043 4.68324 37.8543 4.54688C38.1043 4.41051 38.2889 4.22301 38.4083 3.98438C38.5304 3.74574 38.5915 3.47159 38.5915 3.16193C38.5915 2.85227 38.5304 2.57955 38.4083 2.34375C38.2889 2.10795 38.1029 1.92472 37.85 1.79403C37.6 1.66051 37.2776 1.59375 36.8827 1.59375H35.4338V9H33.8529ZM7.46969 17.2727V26H5.90151V18.5852H2.08333V26H0.515148V17.2727H7.46969ZM9.36067 26V17.2727H12.6334C13.3039 17.2727 13.8664 17.3977 14.3209 17.6477C14.7783 17.8977 15.1235 18.2415 15.3564 18.679C15.5922 19.1136 15.7101 19.608 15.7101 20.1619C15.7101 20.7216 15.5922 21.2187 15.3564 21.6534C15.1206 22.0881 14.7726 22.4304 14.3124 22.6804C13.8522 22.9276 13.2854 23.0511 12.6121 23.0511H10.4431V21.7514H12.399C12.7911 21.7514 13.1121 21.6832 13.3621 21.5469C13.6121 21.4105 13.7968 21.223 13.9161 20.9844C14.0382 20.7457 14.0993 20.4716 14.0993 20.1619C14.0993 19.8523 14.0382 19.5795 13.9161 19.3438C13.7968 19.108 13.6107 18.9247 13.3578 18.794C13.1078 18.6605 12.7854 18.5938 12.3905 18.5938H10.9416V26H9.36067ZM24.8816 21.6364C24.8816 22.5767 24.7055 23.3821 24.3532 24.0526C24.0038 24.7202 23.5265 25.2315 22.9214 25.5866C22.3191 25.9418 21.6359 26.1193 20.8717 26.1193C20.1075 26.1193 19.4228 25.9418 18.8177 25.5866C18.2154 25.2287 17.7382 24.7159 17.3859 24.0483C17.0365 23.3778 16.8617 22.5739 16.8617 21.6364C16.8617 20.696 17.0365 19.892 17.3859 19.2244C17.7382 18.554 18.2154 18.0412 18.8177 17.6861C19.4228 17.331 20.1075 17.1534 20.8717 17.1534C21.6359 17.1534 22.3191 17.331 22.9214 17.6861C23.5265 18.0412 24.0038 18.554 24.3532 19.2244C24.7055 19.892 24.8816 20.696 24.8816 21.6364ZM23.2921 21.6364C23.2921 20.9744 23.1884 20.4162 22.9811 19.9616C22.7765 19.5043 22.4924 19.1591 22.1288 18.9261C21.7651 18.6903 21.3461 18.5724 20.8717 18.5724C20.3973 18.5724 19.9782 18.6903 19.6146 18.9261C19.2509 19.1591 18.9654 19.5043 18.758 19.9616C18.5535 20.4162 18.4512 20.9744 18.4512 21.6364C18.4512 22.2983 18.5535 22.858 18.758 23.3153C18.9654 23.7699 19.2509 24.1151 19.6146 24.3509C19.9782 24.5838 20.3973 24.7003 20.8717 24.7003C21.3461 24.7003 21.7651 24.5838 22.1288 24.3509C22.4924 24.1151 22.7765 23.7699 22.9811 23.3153C23.1884 22.858 23.2921 22.2983 23.2921 21.6364ZM29.6746 18.2443H31.4388C32.1206 18.2443 32.7257 18.3906 33.2541 18.6832C33.7825 18.9759 34.1973 19.3878 34.4985 19.919C34.7996 20.4474 34.9502 21.0668 34.9502 21.777C34.9502 22.4702 34.7996 23.0767 34.4985 23.5966C34.1973 24.1165 33.7825 24.5213 33.2541 24.8111C32.7257 25.098 32.1206 25.2415 31.4388 25.2415H29.6746C28.9899 25.2415 28.382 25.0994 27.8507 24.8153C27.3223 24.5284 26.9075 24.125 26.6064 23.6051C26.3053 23.0852 26.1547 22.4773 26.1547 21.7812C26.1547 21.071 26.3067 20.4517 26.6107 19.9233C26.9147 19.392 27.3308 18.9801 27.8593 18.6875C28.3905 18.392 28.9956 18.2443 29.6746 18.2443ZM29.6746 19.5824C29.2598 19.5824 28.9004 19.6676 28.5965 19.8381C28.2953 20.0057 28.0624 20.2528 27.8976 20.5795C27.7328 20.9062 27.6504 21.3068 27.6504 21.7812C27.6504 22.2358 27.7328 22.6207 27.8976 22.9361C28.0652 23.2514 28.301 23.4915 28.605 23.6562C28.909 23.821 29.2655 23.9034 29.6746 23.9034H31.4431C31.855 23.9034 32.2101 23.821 32.5084 23.6562C32.8095 23.4886 33.0411 23.2472 33.203 22.9318C33.3678 22.6136 33.4502 22.2287 33.4502 21.777C33.4502 21.3082 33.3678 20.9105 33.203 20.5838C33.0411 20.2571 32.8095 20.0085 32.5084 19.8381C32.2101 19.6676 31.855 19.5824 31.4431 19.5824H29.6746ZM31.3195 17.1193V26.358H29.7982V17.1193H31.3195ZM36.4544 26V17.2727H42.1306V18.598H38.0354V20.9673H41.8365V22.2926H38.0354V24.6747H42.1647V26H36.4544ZM51.2137 20.2173H49.6199C49.5745 19.956 49.4906 19.7244 49.3685 19.5227C49.2463 19.3182 49.0943 19.1449 48.9125 19.0028C48.7307 18.8608 48.5233 18.7543 48.2904 18.6832C48.0602 18.6094 47.8117 18.5724 47.5446 18.5724C47.0702 18.5724 46.6497 18.6918 46.2833 18.9304C45.9168 19.1662 45.6298 19.5128 45.4225 19.9702C45.2151 20.4247 45.1114 20.9801 45.1114 21.6364C45.1114 22.304 45.2151 22.8665 45.4225 23.3239C45.6327 23.7784 45.9196 24.1222 46.2833 24.3551C46.6497 24.5852 47.0688 24.7003 47.5404 24.7003C47.8017 24.7003 48.046 24.6662 48.2733 24.598C48.5034 24.527 48.7094 24.4233 48.8912 24.2869C49.0759 24.1506 49.2307 23.983 49.3557 23.7841C49.4835 23.5852 49.5716 23.358 49.6199 23.1023L51.2137 23.1108C51.154 23.5256 51.0247 23.9148 50.8259 24.2784C50.6298 24.642 50.3727 24.9631 50.0546 25.2415C49.7364 25.517 49.3642 25.733 48.9381 25.8892C48.512 26.0426 48.0389 26.1193 47.5191 26.1193C46.752 26.1193 46.0673 25.9418 45.4651 25.5866C44.8628 25.2315 44.3884 24.7188 44.0418 24.0483C43.6952 23.3778 43.5219 22.5739 43.5219 21.6364C43.5219 20.696 43.6966 19.892 44.046 19.2244C44.3955 18.554 44.8713 18.0412 45.4736 17.6861C46.0759 17.331 46.7577 17.1534 47.5191 17.1534C48.0048 17.1534 48.4566 17.2216 48.8742 17.358C49.2918 17.4943 49.6639 17.6946 49.9906 17.9588C50.3173 18.2202 50.5858 18.5412 50.796 18.9219C51.0091 19.2997 51.1483 19.7315 51.2137 20.2173ZM60.1316 20.2173H58.5379C58.4924 19.956 58.4086 19.7244 58.2865 19.5227C58.1643 19.3182 58.0123 19.1449 57.8305 19.0028C57.6487 18.8608 57.4413 18.7543 57.2083 18.6832C56.9782 18.6094 56.7296 18.5724 56.4626 18.5724C55.9882 18.5724 55.5677 18.6918 55.2012 18.9304C54.8348 19.1662 54.5478 19.5128 54.3404 19.9702C54.133 20.4247 54.0294 20.9801 54.0294 21.6364C54.0294 22.304 54.133 22.8665 54.3404 23.3239C54.5507 23.7784 54.8376 24.1222 55.2012 24.3551C55.5677 24.5852 55.9867 24.7003 56.4583 24.7003C56.7197 24.7003 56.964 24.6662 57.1913 24.598C57.4214 24.527 57.6274 24.4233 57.8092 24.2869C57.9938 24.1506 58.1487 23.983 58.2737 23.7841C58.4015 23.5852 58.4896 23.358 58.5379 23.1023L60.1316 23.1108C60.072 23.5256 59.9427 23.9148 59.7438 24.2784C59.5478 24.642 59.2907 24.9631 58.9725 25.2415C58.6544 25.517 58.2822 25.733 57.8561 25.8892C57.4299 26.0426 56.9569 26.1193 56.437 26.1193C55.67 26.1193 54.9853 25.9418 54.383 25.5866C53.7808 25.2315 53.3063 24.7188 52.9598 24.0483C52.6132 23.3778 52.4399 22.5739 52.4399 21.6364C52.4399 20.696 52.6146 19.892 52.964 19.2244C53.3134 18.554 53.7893 18.0412 54.3916 17.6861C54.9938 17.331 55.6757 17.1534 56.437 17.1534C56.9228 17.1534 57.3745 17.2216 57.7921 17.358C58.2098 17.4943 58.5819 17.6946 58.9086 17.9588C59.2353 18.2202 59.5038 18.5412 59.714 18.9219C59.9271 19.2997 60.0663 19.7315 60.1316 20.2173ZM61.5794 17.2727H63.1476V23.2216H63.2286L67.3323 17.2727H68.7513V26H67.1703V20.0554H67.0979L62.9814 26H61.5794V17.2727ZM78.2723 21.6364C78.2723 22.5767 78.0961 23.3821 77.7438 24.0526C77.3944 24.7202 76.9171 25.2315 76.312 25.5866C75.7098 25.9418 75.0265 26.1193 74.2623 26.1193C73.4981 26.1193 72.8134 25.9418 72.2083 25.5866C71.6061 25.2287 71.1288 24.7159 70.7765 24.0483C70.4271 23.3778 70.2524 22.5739 70.2524 21.6364C70.2524 20.696 70.4271 19.892 70.7765 19.2244C71.1288 18.554 71.6061 18.0412 72.2083 17.6861C72.8134 17.331 73.4981 17.1534 74.2623 17.1534C75.0265 17.1534 75.7098 17.331 76.312 17.6861C76.9171 18.0412 77.3944 18.554 77.7438 19.2244C78.0961 19.892 78.2723 20.696 78.2723 21.6364ZM76.6828 21.6364C76.6828 20.9744 76.5791 20.4162 76.3717 19.9616C76.1671 19.5043 75.883 19.1591 75.5194 18.9261C75.1558 18.6903 74.7367 18.5724 74.2623 18.5724C73.7879 18.5724 73.3688 18.6903 73.0052 18.9261C72.6416 19.1591 72.3561 19.5043 72.1487 19.9616C71.9441 20.4162 71.8419 20.9744 71.8419 21.6364C71.8419 22.2983 71.9441 22.858 72.1487 23.3153C72.3561 23.7699 72.6416 24.1151 73.0052 24.3509C73.3688 24.5838 73.7879 24.7003 74.2623 24.7003C74.7367 24.7003 75.1558 24.5838 75.5194 24.3509C75.883 24.1151 76.1671 23.7699 76.3717 23.3153C76.5791 22.858 76.6828 22.2983 76.6828 21.6364ZM79.7669 26V17.2727H81.3479V20.9673H85.3919V17.2727H86.9772V26H85.3919V22.2926H81.3479V26H79.7669ZM89.8173 26H88.1298L91.2023 17.2727H93.154L96.2307 26H94.5432L92.2122 19.0625H92.1441L89.8173 26ZM89.8727 22.5781H94.475V23.848H89.8727V22.5781ZM96.8134 26V24.6875L97.0606 24.6747C97.3958 24.6548 97.6615 24.5341 97.8575 24.3125C98.0563 24.0909 98.2026 23.7344 98.2964 23.2429C98.393 22.7514 98.4569 22.0923 98.4882 21.2656L98.633 17.2727H104.352V26H102.805V18.5724H100.107L99.9711 21.7557C99.9313 22.7102 99.8262 23.5014 99.6558 24.1293C99.4882 24.7571 99.2126 25.2259 98.8291 25.5355C98.4484 25.8452 97.9186 26 97.2396 26H96.8134ZM107.145 20.6435H109.361C110.029 20.6435 110.601 20.7528 111.078 20.9716C111.558 21.1875 111.926 21.4929 112.182 21.8878C112.438 22.2827 112.566 22.7472 112.566 23.2812C112.566 23.8182 112.438 24.2912 112.182 24.7003C111.926 25.1065 111.558 25.4247 111.078 25.6548C110.601 25.8849 110.029 26 109.361 26H106.093V17.2727H107.678V24.7045H109.361C109.713 24.7045 110.012 24.6378 110.256 24.5043C110.5 24.3707 110.685 24.1946 110.81 23.9759C110.938 23.7571 111.002 23.5199 111.002 23.2642C111.002 22.8949 110.86 22.581 110.576 22.3224C110.294 22.0611 109.889 21.9304 109.361 21.9304H107.145V20.6435ZM114.103 26V17.2727H115.684V20.9673H119.728V17.2727H121.313V26H119.728V22.2926H115.684V26H114.103ZM130.831 21.6364C130.831 22.5767 130.655 23.3821 130.302 24.0526C129.953 24.7202 129.476 25.2315 128.871 25.5866C128.268 25.9418 127.585 26.1193 126.821 26.1193C126.057 26.1193 125.372 25.9418 124.767 25.5866C124.165 25.2287 123.687 24.7159 123.335 24.0483C122.986 23.3778 122.811 22.5739 122.811 21.6364C122.811 20.696 122.986 19.892 123.335 19.2244C123.687 18.554 124.165 18.0412 124.767 17.6861C125.372 17.331 126.057 17.1534 126.821 17.1534C127.585 17.1534 128.268 17.331 128.871 17.6861C129.476 18.0412 129.953 18.554 130.302 19.2244C130.655 19.892 130.831 20.696 130.831 21.6364ZM129.241 21.6364C129.241 20.9744 129.138 20.4162 128.93 19.9616C128.726 19.5043 128.442 19.1591 128.078 18.9261C127.714 18.6903 127.295 18.5724 126.821 18.5724C126.346 18.5724 125.927 18.6903 125.564 18.9261C125.2 19.1591 124.915 19.5043 124.707 19.9616C124.503 20.4162 124.4 20.9744 124.4 21.6364C124.4 22.2983 124.503 22.858 124.707 23.3153C124.915 23.7699 125.2 24.1151 125.564 24.3509C125.927 24.5838 126.346 24.7003 126.821 24.7003C127.295 24.7003 127.714 24.5838 128.078 24.3509C128.442 24.1151 128.726 23.7699 128.93 23.3153C129.138 22.858 129.241 22.2983 129.241 21.6364ZM132.326 17.2727H133.894V23.2216H133.975L138.078 17.2727H139.497V26H137.916V20.0554H137.844L133.728 26H132.326V17.2727ZM136.757 15.0227H137.912C137.912 15.5199 137.732 15.9233 137.371 16.233C137.013 16.5398 136.527 16.6932 135.914 16.6932C135.306 16.6932 134.821 16.5398 134.46 16.233C134.103 15.9233 133.925 15.5199 133.928 15.0227H135.074C135.074 15.2273 135.137 15.4105 135.262 15.5724C135.389 15.7315 135.607 15.8111 135.914 15.8111C136.215 15.8111 136.429 15.7315 136.557 15.5724C136.688 15.4134 136.754 15.2301 136.757 15.0227ZM7.81913 37.2173H6.22538C6.17992 36.956 6.09611 36.7244 5.97396 36.5227C5.8518 36.3182 5.69981 36.1449 5.51799 36.0028C5.33617 35.8608 5.12878 35.7543 4.89583 35.6832C4.66572 35.6094 4.41714 35.5724 4.15009 35.5724C3.67566 35.5724 3.2552 35.6918 2.88873 35.9304C2.52225 36.1662 2.23532 36.5128 2.02793 36.9702C1.82055 37.4247 1.71685 37.9801 1.71685 38.6364C1.71685 39.304 1.82055 39.8665 2.02793 40.3239C2.23816 40.7784 2.52509 41.1222 2.88873 41.3551C3.2552 41.5852 3.67424 41.7003 4.14583 41.7003C4.40719 41.7003 4.65151 41.6662 4.87878 41.598C5.1089 41.527 5.31486 41.4233 5.49668 41.2869C5.68134 41.1506 5.83617 40.983 5.96117 40.7841C6.08901 40.5852 6.17708 40.358 6.22538 40.1023L7.81913 40.1108C7.75947 40.5256 7.6302 40.9148 7.43134 41.2784C7.23532 41.642 6.97822 41.9631 6.66003 42.2415C6.34185 42.517 5.96969 42.733 5.54356 42.8892C5.11742 43.0426 4.64441 43.1193 4.12452 43.1193C3.35748 43.1193 2.67282 42.9418 2.07055 42.5866C1.46827 42.2315 0.993841 41.7188 0.64725 41.0483C0.300659 40.3778 0.127364 39.5739 0.127364 38.6364C0.127364 37.696 0.30208 36.892 0.651511 36.2244C1.00094 35.554 1.4768 35.0412 2.07907 34.6861C2.68134 34.331 3.36316 34.1534 4.12452 34.1534C4.61032 34.1534 5.06202 34.2216 5.47964 34.358C5.89725 34.4943 6.26941 34.6946 6.59611 34.9588C6.92282 35.2202 7.19128 35.5412 7.40151 35.9219C7.61458 36.2997 7.75378 36.7315 7.81913 37.2173ZM8.8834 35.598V34.2727H15.8465V35.598H13.149V43H11.5808V35.598H8.8834ZM24.6004 38.6364C24.6004 39.5767 24.4242 40.3821 24.072 41.0526C23.7225 41.7202 23.2453 42.2315 22.6401 42.5866C22.0379 42.9418 21.3546 43.1193 20.5904 43.1193C19.8262 43.1193 19.1416 42.9418 18.5365 42.5866C17.9342 42.2287 17.4569 41.7159 17.1046 41.0483C16.7552 40.3778 16.5805 39.5739 16.5805 38.6364C16.5805 37.696 16.7552 36.892 17.1046 36.2244C17.4569 35.554 17.9342 35.0412 18.5365 34.6861C19.1416 34.331 19.8262 34.1534 20.5904 34.1534C21.3546 34.1534 22.0379 34.331 22.6401 34.6861C23.2453 35.0412 23.7225 35.554 24.072 36.2244C24.4242 36.892 24.6004 37.696 24.6004 38.6364ZM23.0109 38.6364C23.0109 37.9744 22.9072 37.4162 22.6998 36.9616C22.4953 36.5043 22.2112 36.1591 21.8475 35.9261C21.4839 35.6903 21.0649 35.5724 20.5904 35.5724C20.116 35.5724 19.697 35.6903 19.3333 35.9261C18.9697 36.1591 18.6842 36.5043 18.4768 36.9616C18.2723 37.4162 18.17 37.9744 18.17 38.6364C18.17 39.2983 18.2723 39.858 18.4768 40.3153C18.6842 40.7699 18.9697 41.1151 19.3333 41.3509C19.697 41.5838 20.116 41.7003 20.5904 41.7003C21.0649 41.7003 21.4839 41.5838 21.8475 41.3509C22.2112 41.1151 22.4953 40.7699 22.6998 40.3153C22.9072 39.858 23.0109 39.2983 23.0109 38.6364ZM26.095 34.2727H28.0297L30.6206 40.5966H30.7229L33.3138 34.2727H35.2485V43H33.7314V37.0043H33.6504L31.2385 42.9744H30.105L27.6931 36.9915H27.6121V43H26.095V34.2727ZM38.0908 43H36.4033L39.4757 34.2727H41.4274L44.5041 43H42.8166L40.4857 36.0625H40.4175L38.0908 43ZM38.1462 39.5781H42.7485V40.848H38.1462V39.5781ZM44.2154 35.598V34.2727H51.1785V35.598H48.4811V43H46.9129V35.598H44.2154ZM59.9324 38.6364C59.9324 39.5767 59.7563 40.3821 59.404 41.0526C59.0546 41.7202 58.5773 42.2315 57.9722 42.5866C57.3699 42.9418 56.6867 43.1193 55.9225 43.1193C55.1583 43.1193 54.4736 42.9418 53.8685 42.5866C53.2662 42.2287 52.7889 41.7159 52.4367 41.0483C52.0872 40.3778 51.9125 39.5739 51.9125 38.6364C51.9125 37.696 52.0872 36.892 52.4367 36.2244C52.7889 35.554 53.2662 35.0412 53.8685 34.6861C54.4736 34.331 55.1583 34.1534 55.9225 34.1534C56.6867 34.1534 57.3699 34.331 57.9722 34.6861C58.5773 35.0412 59.0546 35.554 59.404 36.2244C59.7563 36.892 59.9324 37.696 59.9324 38.6364ZM58.3429 38.6364C58.3429 37.9744 58.2392 37.4162 58.0318 36.9616C57.8273 36.5043 57.5432 36.1591 57.1796 35.9261C56.8159 35.6903 56.3969 35.5724 55.9225 35.5724C55.448 35.5724 55.029 35.6903 54.6654 35.9261C54.3017 36.1591 54.0162 36.5043 53.8088 36.9616C53.6043 37.4162 53.502 37.9744 53.502 38.6364C53.502 39.2983 53.6043 39.858 53.8088 40.3153C54.0162 40.7699 54.3017 41.1151 54.6654 41.3509C55.029 41.5838 55.448 41.7003 55.9225 41.7003C56.3969 41.7003 56.8159 41.5838 57.1796 41.3509C57.5432 41.1151 57.8273 40.7699 58.0318 40.3153C58.2392 39.858 58.3429 39.2983 58.3429 38.6364ZM60.8603 43V41.6875L61.1075 41.6747C61.4427 41.6548 61.7083 41.5341 61.9044 41.3125C62.1032 41.0909 62.2495 40.7344 62.3433 40.2429C62.4399 39.7514 62.5038 39.0923 62.535 38.2656L62.6799 34.2727H68.3987V43H66.8518V35.5724H64.1544L64.018 38.7557C63.9782 39.7102 63.8731 40.5014 63.7026 41.1293C63.535 41.7571 63.2595 42.2259 62.8759 42.5355C62.4953 42.8452 61.9654 43 61.2865 43H60.8603ZM77.9207 38.6364C77.9207 39.5767 77.7446 40.3821 77.3923 41.0526C77.0428 41.7202 76.5656 42.2315 75.9605 42.5866C75.3582 42.9418 74.6749 43.1193 73.9107 43.1193C73.1465 43.1193 72.4619 42.9418 71.8568 42.5866C71.2545 42.2287 70.7772 41.7159 70.4249 41.0483C70.0755 40.3778 69.9008 39.5739 69.9008 38.6364C69.9008 37.696 70.0755 36.892 70.4249 36.2244C70.7772 35.554 71.2545 35.0412 71.8568 34.6861C72.4619 34.331 73.1465 34.1534 73.9107 34.1534C74.6749 34.1534 75.3582 34.331 75.9605 34.6861C76.5656 35.0412 77.0428 35.554 77.3923 36.2244C77.7446 36.892 77.9207 37.696 77.9207 38.6364ZM76.3312 38.6364C76.3312 37.9744 76.2275 37.4162 76.0201 36.9616C75.8156 36.5043 75.5315 36.1591 75.1678 35.9261C74.8042 35.6903 74.3852 35.5724 73.9107 35.5724C73.4363 35.5724 73.0173 35.6903 72.6536 35.9261C72.29 36.1591 72.0045 36.5043 71.7971 36.9616C71.5926 37.4162 71.4903 37.9744 71.4903 38.6364C71.4903 39.2983 71.5926 39.858 71.7971 40.3153C72.0045 40.7699 72.29 41.1151 72.6536 41.3509C73.0173 41.5838 73.4363 41.7003 73.9107 41.7003C74.3852 41.7003 74.8042 41.5838 75.1678 41.3509C75.5315 41.1151 75.8156 40.7699 76.0201 40.3153C76.2275 39.858 76.3312 39.2983 76.3312 38.6364ZM85.0276 34.2727V35.598H80.9963V43H79.4154V34.2727H85.0276ZM86.3646 34.2727H87.9328V40.2216H88.0137L92.1174 34.2727H93.5365V43H91.9555V37.0554H91.883L87.7666 43H86.3646V34.2727ZM95.2591 34.2727H96.8273V40.2216H96.9083L101.012 34.2727H102.431V43H100.85V37.0554H100.778L96.6611 43H95.2591V34.2727Z" fill="#4B2B16"/>
</svg>
