<svg width="61" height="55" viewBox="0 0 61 55" fill="none" xmlns="http://www.w3.org/2000/svg">
<path fill-rule="evenodd" clip-rule="evenodd" d="M12.6099 5.45635C13.8049 8.45778 14.9294 11.0672 15.1081 11.2567C15.2859 11.4461 18.0503 8.99555 21.2502 5.81167L27.0677 0.0209525L18.7521 0.0104763L10.4366 0L12.6099 5.45635ZM35.2286 0.681826C35.2286 1.61857 45.4023 11.7805 45.8585 11.2994C46.0595 11.0864 47.2029 8.45778 48.3978 5.45635L50.5712 0H42.8999C38.6803 0 35.2286 0.307302 35.2286 0.681826ZM24.7053 6.67508C21.5165 9.82841 18.9068 12.5627 18.9068 12.7513C18.9068 12.9407 23.9322 13.0952 30.0743 13.0952C36.2165 13.0952 41.2419 12.7897 41.2419 12.4152C41.2419 12.0415 38.8263 9.30722 35.8729 6.33897L30.5039 0.941985L24.7053 6.67508ZM3.65869 6.94309C1.65024 9.74722 0.00774456 12.279 0.00774456 12.5679C0.00774456 12.8578 2.94826 13.0952 6.54251 13.0952C11.403 13.0952 12.9785 12.8159 12.6924 12.004C12.4811 11.4042 11.5903 8.85063 10.7132 6.32937C9.83523 3.8081 8.71074 1.76786 8.21335 1.79579C7.71682 1.82286 5.66628 4.13897 3.65869 6.94309ZM50.0429 6.79992C48.9819 9.58048 48.1143 12.134 48.1143 12.4745C48.1143 12.8159 51.0136 13.0952 54.5572 13.0952C58.1007 13.0952 61 12.8691 61 12.5924C61 11.7613 53.2162 1.74603 52.5693 1.74603C52.2403 1.74603 51.1038 4.02024 50.0429 6.79992ZM1.33024e-05 15.4559C-0.0171676 16.9557 16.614 55 17.2866 55C17.6809 55 20.3723 51.4198 23.2673 47.0433C27.2197 41.0702 28.3494 38.7078 27.7996 37.5633C24.9965 31.7271 15.7704 15.7309 15.2034 15.7239C14.8203 15.7187 14.7086 17.3844 14.9551 19.4246C15.2017 21.4648 15.5934 27.8492 15.8254 33.6111L17.2866 55L14.5694 33.1746C13.6468 27.1726 12.591 20.6905 12.2242 18.7698L11.5559 15.2778L5.78225 15.0194C2.60636 14.8779 0.00430853 15.0744 1.33024e-05 15.4559ZM19.7658 15.8016C19.7658 16.9601 29.1157 33.8826 30.0958 34.4981C30.7693 34.9206 41.2419 17.1897 41.2419 15.6279C41.2419 15.1948 36.4098 14.8413 30.5039 14.8413C23.2681 14.8413 19.7658 15.1547 19.7658 15.8016ZM48.1822 20.7341C47.6616 23.9748 46.6797 29.9663 46.0011 34.0476L43.3243 54.8385L45.1875 31.4286C45.4195 25.9067 45.8035 20.1125 46.0414 18.5516C46.2794 16.9906 46.1514 15.7143 45.7562 15.7143C44.9556 15.7143 33.2159 36.3541 32.8456 38.4127C32.6094 39.7248 41.9214 54.3217 43.3243 54.8385C43.9909 55.0838 61 17.27 61 15.544C61 15.1573 58.3292 14.8413 55.064 14.8413H49.1288L48.1822 20.7341Z" fill="#4B2B16"/>
</svg>
