<svg width="113" height="113" viewBox="0 0 113 113" fill="none" xmlns="http://www.w3.org/2000/svg">
<path d="M50.2131 101.492C51.3487 101.643 52.238 102.142 52.8812 102.991C53.5245 103.839 53.774 104.807 53.6299 105.892C53.4858 106.977 52.9927 107.846 52.1504 108.497C51.3082 109.148 50.3193 109.398 49.1838 109.248C48.491 109.156 47.8776 108.904 47.3437 108.492C46.8089 108.086 46.4217 107.58 46.1824 106.974L46.8978 106.677C47.0728 107.165 47.3744 107.576 47.8025 107.909C48.2307 108.242 48.7234 108.446 49.2804 108.519C50.216 108.644 51.0204 108.441 51.6938 107.913C52.3671 107.385 52.7625 106.678 52.88 105.792C52.9976 104.906 52.8003 104.121 52.2881 103.435C51.7759 102.75 51.052 102.344 50.1165 102.22C49.5594 102.146 49.0308 102.215 48.5305 102.424C48.0303 102.634 47.6321 102.951 47.3357 103.377L46.7213 102.914C47.1033 102.391 47.6093 102 48.2395 101.742C48.8625 101.484 49.5204 101.4 50.2131 101.492Z" fill="#262626"/>
<path d="M32.6897 104.303L35.4947 97.2778L36.1972 97.5588L33.8169 103.519L37.9187 100.386L38.0191 100.427L38.835 105.523L41.2152 99.5625L41.9178 99.8426L39.1127 106.868L38.2396 106.519L37.464 101.672L33.5628 104.651L32.6897 104.303Z" fill="#262626"/>
<path d="M26.4737 92.5854C27.5265 92.3954 28.5026 92.6134 29.402 93.2374C30.3013 93.8624 30.8458 94.7017 31.0355 95.7544C31.2211 96.8126 31.0035 97.7888 30.3829 98.6821C29.7622 99.5754 28.9254 100.118 27.8726 100.307C26.8157 100.503 25.8375 100.288 24.9382 99.6637C24.0388 99.0387 23.4964 98.1967 23.3108 97.1377C23.1212 96.0849 23.3367 95.1124 23.9573 94.219C24.578 93.3248 25.4168 92.7809 26.4737 92.5854ZM30.3047 95.8778C30.157 95.0295 29.7164 94.3505 28.9827 93.8408C28.249 93.3311 27.459 93.1555 26.6127 93.3131C25.7621 93.477 25.0841 93.9227 24.5785 94.6504C24.073 95.378 23.894 96.166 24.0416 97.0143C24.1852 97.868 24.6237 98.5497 25.3574 99.0594C26.0911 99.5691 26.8832 99.742 27.7337 99.579C28.5801 99.4214 29.256 98.9784 29.7616 98.2507C30.2671 97.5231 30.4482 96.7324 30.3047 95.8778Z" fill="#262626"/>
<path d="M15.4822 90.9044L15.9972 90.4109L17.6044 92.0886L22.5519 87.3491L23.0753 87.8954L18.1277 92.6352L19.7349 94.3129L19.2199 94.8064L15.4822 90.9044Z" fill="#262626"/>
<path d="M10.9869 84.6482C10.6287 84.0735 10.5221 83.4734 10.6673 82.8482C10.8125 82.223 11.1724 81.7313 11.7471 81.373C12.3218 81.0149 12.9219 80.9084 13.5471 81.0535C14.1724 81.1987 14.6641 81.5586 15.0222 82.1334L16.051 83.7841L18.4355 82.2982L18.8356 82.9401L12.4157 86.941L10.9869 84.6482ZM14.4169 82.5106C14.1692 82.1132 13.8339 81.868 13.411 81.775C12.9781 81.6798 12.5569 81.7598 12.1472 82.015C11.7376 82.2703 11.4832 82.6114 11.3841 83.0381C11.2751 83.4626 11.3445 83.8736 11.5921 84.271L12.6209 85.9217L15.4457 84.1614L14.4169 82.5106Z" fill="#262626"/>
<path d="M12.7437 73.0562L11.553 69.5802L12.2278 69.3491L13.6636 73.5407L6.50733 75.9921L5.08899 71.8516L5.76373 71.6206L6.93691 75.0453L9.47231 74.1768L8.38665 71.0076L9.06138 70.7765L10.147 73.9457L12.7437 73.0562Z" fill="#262626"/>
<path d="M2.823 60.0844L3.53017 59.9917L3.83207 62.2954L10.6253 61.4051L10.7236 62.1552L3.93036 63.0454L4.23226 65.3491L3.52508 65.4418L2.823 60.0844Z" fill="#262626"/>
<path d="M5.69545 52.6816C5.73312 52.0055 5.99116 51.4534 6.46957 51.0256C6.94798 50.5976 7.52526 50.4025 8.20142 50.4401C8.87757 50.4778 9.42964 50.7358 9.85757 51.2142C10.2855 51.6927 10.4806 52.2699 10.4429 52.946L10.2927 55.6435L2.73987 55.2228L2.78193 54.4675L5.58727 54.6238L5.69545 52.6816ZM9.73078 52.9064C9.75689 52.4389 9.62361 52.0454 9.33116 51.7261C9.0319 51.3991 8.64129 51.2222 8.15935 51.1954C7.67741 51.1686 7.27316 51.3012 6.94663 51.5933C6.6133 51.8777 6.43362 52.2537 6.40757 52.7213L6.29939 54.6635L9.62262 54.8486L9.73078 52.9064Z" fill="#262626"/>
<path d="M10.8972 35.4266C11.1824 35.146 11.5158 34.9666 11.8976 34.8885C12.2754 34.801 12.6545 34.8347 13.0349 34.9893C13.5754 35.2091 13.9586 35.5866 14.1842 36.1216C14.41 36.6567 14.4129 37.1946 14.1931 37.7351L12.9515 40.7883L5.94421 37.9388L7.09216 35.1159C7.30384 34.5953 7.67117 34.2275 8.19415 34.0125C8.71046 33.7946 9.22555 33.7902 9.73945 33.9992C10.3934 34.2652 10.7794 34.7409 10.8972 35.4266ZM7.75285 35.3845L6.88986 37.5067L9.3324 38.5L10.1954 36.3778C10.3284 36.0507 10.3242 35.7264 10.1829 35.4044C10.0376 35.0732 9.79483 34.8383 9.45442 34.6999C9.12078 34.5642 8.78633 34.5643 8.4511 34.7002C8.11857 34.8294 7.88583 35.0575 7.75285 35.3845ZM13.5324 37.4665C13.6735 37.1194 13.6695 36.7756 13.5203 36.4349C13.3671 36.0849 13.1103 35.8366 12.7499 35.6901C12.3962 35.5462 12.0423 35.5462 11.6883 35.69C11.337 35.8271 11.0908 36.0692 10.9497 36.4162L9.99313 38.7687L12.5758 39.819L13.5324 37.4665Z" fill="#262626"/>
<path d="M19.3906 28.7488L14.282 25.3073L17.0359 32.2442L16.6736 32.7819L10.3999 28.5555L10.8225 27.9282L15.9311 31.3697L13.1773 24.4328L13.5395 23.895L19.8132 28.1214L19.3906 28.7488Z" fill="#262626"/>
<path d="M26.1806 20.4863L26.7695 19.9294L28.2546 21.4995L27.705 22.0193L26.7099 20.9673L22.7845 24.6802L23.7796 25.7322L23.23 26.252L21.7448 24.6819L22.1924 24.2586C22.1525 23.4931 21.7143 22.6681 20.8776 21.7835L18.0261 18.7687L21.4727 15.5088L26.1806 20.4863ZM22.8439 23.6423L25.6311 21.0061L21.4132 16.5468L19.0658 18.7671L21.442 21.2794C22.2638 22.1482 22.7311 22.9359 22.8439 23.6423Z" fill="#262626"/>
<path d="M30.7174 17.1754L33.8741 15.2952L34.2391 15.908L30.4325 18.1753L26.5615 11.6762L30.3217 9.43652L30.6867 10.0493L27.5764 11.9018L28.9479 14.2043L31.826 12.4901L32.191 13.1029L29.3128 14.8172L30.7174 17.1754Z" fill="#262626"/>
<path d="M44.9975 10.5663C44.5144 11.5208 43.7525 12.1687 42.712 12.5098C41.6714 12.8509 40.6739 12.78 39.7194 12.2968C38.7627 11.8068 38.1149 11.045 37.776 10.0113C37.4371 8.97751 37.5092 7.98343 37.9923 7.02895C38.4733 6.06765 39.234 5.41641 40.2746 5.07527C41.3151 4.73413 42.3138 4.80855 43.2705 5.29855C44.225 5.7817 44.8716 6.54013 45.2105 7.57384C45.5495 8.60756 45.4784 9.60511 44.9975 10.5663ZM40.061 11.639C40.8268 12.0323 41.6341 12.0899 42.4831 11.8115C43.3319 11.5333 43.9485 11.0089 44.3328 10.2385C44.7148 9.4612 44.7678 8.65154 44.4917 7.8095C44.2157 6.96747 43.6947 6.34977 42.9289 5.9564C42.1608 5.55619 41.3523 5.49524 40.5035 5.77354C39.6546 6.05184 39.0392 6.57963 38.6571 7.35689C38.2729 8.12731 38.2187 8.93354 38.4948 9.77558C38.7709 10.6176 39.2929 11.2387 40.061 11.639Z" fill="#262626"/>
<path d="M49.3333 11.9151L48.7959 11.9708L52.0925 1.85113L52.6299 1.79541L49.3333 11.9151Z" fill="#262626"/>
<path d="M62.0462 10.8774C60.9105 10.7279 60.0206 10.2293 59.3765 9.38162C58.7323 8.53384 58.4817 7.56712 58.6246 6.48143C58.7674 5.39573 59.2597 4.52677 60.1012 3.87455C60.9428 3.22233 61.9314 2.97095 63.0671 3.12041C63.7599 3.21159 64.3736 3.46311 64.9079 3.87496C65.4432 4.27967 65.8309 4.78484 66.0709 5.39047L65.3559 5.68876C65.1804 5.2006 64.8783 4.79026 64.4498 4.45774C64.0212 4.12521 63.5283 3.9223 62.9712 3.84897C62.0355 3.72583 61.2313 3.92881 60.5585 4.45792C59.8858 4.98703 59.4911 5.69443 59.3746 6.58013C59.258 7.46583 59.4562 8.25125 59.9691 8.93641C60.4821 9.62152 61.2064 10.0257 62.1421 10.1489C62.6992 10.2222 63.2278 10.1536 63.7278 9.94337C64.2278 9.73301 64.6257 9.41485 64.9216 8.9887L65.5365 9.45114C65.1551 9.97498 64.6495 10.3662 64.0196 10.6248C63.3968 10.8844 62.7391 10.9686 62.0462 10.8774Z" fill="#262626"/>
<path d="M79.5673 8.04681L76.77 15.0751L76.0671 14.7954L78.4409 8.83137L74.3425 11.9689L74.2421 11.9289L73.4206 6.83328L71.0469 12.7973L70.3441 12.5176L73.1414 5.48926L74.0149 5.83692L74.7958 10.6838L78.6937 7.69914L79.5673 8.04681Z" fill="#262626"/>
<path d="M85.7965 19.757C84.7438 19.9478 83.7675 19.7313 82.8675 19.1075C81.9675 18.4837 81.4221 17.6456 81.2313 16.593C81.0445 15.5344 81.261 14.5581 81.8806 13.664C82.5003 12.7698 83.3365 12.2274 84.3891 12.0366C85.4459 11.8398 86.4242 12.0533 87.3242 12.6771C88.2243 13.3009 88.7677 14.1421 88.9544 15.2006C89.1452 16.2533 88.9308 17.2266 88.3111 18.1207C87.6915 19.0148 86.8532 19.5602 85.7965 19.757ZM81.9619 16.4682C82.1105 17.3163 82.5519 17.9947 83.2861 18.5036C84.0203 19.0124 84.8105 19.1876 85.6568 19.029C86.5071 18.8645 87.1846 18.4181 87.6894 17.6898C88.1941 16.9615 88.3723 16.1733 88.2237 15.3253C88.0792 14.4714 87.6399 13.7899 86.9056 13.2811C86.1714 12.7722 85.3791 12.6001 84.5289 12.7645C83.6826 12.9231 83.0071 13.3665 82.5024 14.0949C81.9976 14.8231 81.8174 15.6143 81.9619 16.4682Z" fill="#262626"/>
<path d="M96.7892 21.4275L96.2741 21.9214L94.6648 20.2455L89.7228 24.9902L89.199 24.4446L94.1416 19.6997L92.5323 18.0237L93.0465 17.5298L96.7892 21.4275Z" fill="#262626"/>
<path d="M101.292 27.6789C101.651 28.2532 101.758 28.8531 101.613 29.4786C101.469 30.1039 101.11 30.5961 100.535 30.9548C99.9608 31.3136 99.3611 31.4209 98.7361 31.2763C98.1102 31.1319 97.6185 30.7725 97.2592 30.1982L96.229 28.5485L93.8462 30.0371L93.4454 29.3955L99.8609 25.3877L101.292 27.6789ZM97.8644 29.8202C98.1129 30.2175 98.4479 30.4622 98.8712 30.5547C99.3043 30.6495 99.7249 30.569 100.135 30.3133C100.544 30.0575 100.798 29.7162 100.896 29.2894C101.005 28.8648 100.935 28.4539 100.688 28.0568L99.6565 26.4071L96.8342 28.1705L97.8644 29.8202Z" fill="#262626"/>
<path d="M99.5463 39.2714L100.741 42.746L100.067 42.9779L98.626 38.788L105.78 36.3286L107.203 40.4675L106.528 40.6994L105.351 37.2759L102.817 38.1472L103.906 41.3152L103.231 41.5471L102.143 38.3791L99.5463 39.2714Z" fill="#262626"/>
<path d="M109.482 52.2322L108.775 52.3256L108.471 50.0222L101.679 50.9199L101.58 50.17L108.372 49.2724L108.067 46.969L108.774 46.8755L109.482 52.2322Z" fill="#262626"/>
<path d="M106.618 59.6386C106.581 60.3147 106.323 60.8671 105.846 61.2955C105.368 61.7239 104.79 61.9197 104.114 61.8828C103.438 61.8459 102.886 61.5884 102.457 61.1105C102.029 60.6326 101.833 60.0555 101.87 59.3793L102.018 56.6816L109.57 57.0941L109.529 57.8495L106.724 57.6963L106.618 59.6386ZM102.582 59.4182C102.557 59.8858 102.69 60.279 102.983 60.5981C103.283 60.9247 103.674 61.1011 104.155 61.1274C104.637 61.1538 105.042 61.0207 105.368 60.7283C105.701 60.4435 105.88 60.0672 105.905 59.5997L106.011 57.6574L102.688 57.4759L102.582 59.4182Z" fill="#262626"/>
<path d="M101.435 76.9C101.149 77.181 100.816 77.3607 100.434 77.4392C100.057 77.5271 99.678 77.4939 99.2971 77.3396C98.7567 77.1204 98.3731 76.7434 98.1471 76.2086C97.9201 75.6737 97.9165 75.1359 98.1363 74.5951L99.3745 71.5405L106.384 74.3824L105.24 77.2065C105.029 77.7273 104.662 78.0956 104.139 78.3112C103.623 78.5295 103.108 78.5346 102.594 78.3261C101.939 78.0609 101.553 77.5855 101.435 76.9ZM104.579 76.9386L105.44 74.8154L102.996 73.8248L102.136 75.948C102.002 76.2752 102.007 76.5997 102.149 76.9213C102.294 77.2525 102.537 77.4871 102.878 77.6251C103.212 77.7604 103.547 77.7599 103.882 77.6237C104.214 77.4942 104.446 77.2658 104.579 76.9386ZM98.7973 74.8631C98.6559 75.2102 98.6604 75.554 98.8108 75.8945C98.9639 76.2444 99.2214 76.4924 99.5816 76.6386C99.9355 76.782 100.289 76.7817 100.643 76.6375C100.995 76.5 101.24 76.2576 101.381 75.9104L102.335 73.5569L99.7509 72.5095L98.7973 74.8631Z" fill="#262626"/>
<path d="M92.9491 83.5873L98.0614 87.0232L95.2995 80.0894L95.6615 79.5513L101.94 83.7707L101.518 84.3986L96.4054 80.9627L99.1664 87.8966L98.8053 88.4347L92.5267 84.2152L92.9491 83.5873Z" fill="#262626"/>
<path d="M86.1678 91.8563L85.5795 92.4137L84.0927 90.8458L84.6416 90.3251L85.6379 91.3763L89.5593 87.6587L88.563 86.6078L89.1121 86.0874L90.599 87.656L90.1519 88.0797C90.1925 88.8452 90.6315 89.6698 91.469 90.5532L94.3246 93.5655L90.8809 96.829L86.1678 91.8563ZM89.5009 88.6968L86.7167 91.3357L90.9395 95.7907L93.2845 93.5682L90.9052 91.0584C90.0828 90.1903 89.6146 89.4031 89.5009 88.6968Z" fill="#262626"/>
<path d="M81.6337 95.1724L78.479 97.0563L78.1134 96.4439L81.9175 94.1719L85.7955 100.667L82.0379 102.911L81.6722 102.298L84.7805 100.442L83.4065 98.1414L80.5302 99.8588L80.1646 99.2464L83.0409 97.5291L81.6337 95.1724Z" fill="#262626"/>
<path d="M67.3613 101.797C67.8435 100.842 68.6046 100.194 69.6447 99.8515C70.6849 99.5093 71.6826 99.5786 72.6375 100.061C73.5948 100.549 74.2434 101.311 74.5835 102.344C74.9235 103.378 74.8525 104.372 74.3704 105.327C73.8905 106.289 73.1304 106.941 72.0903 107.283C71.0501 107.625 70.0514 107.552 69.0941 107.063C68.1391 106.581 67.4916 105.823 67.1516 104.79C66.8115 103.756 66.8815 102.759 67.3613 101.797ZM72.2967 100.719C71.5305 100.327 70.723 100.27 69.8745 100.549C69.0259 100.829 68.4099 101.354 68.0265 102.124C67.6453 102.902 67.5932 103.712 67.8701 104.553C68.1471 105.395 68.6687 106.012 69.435 106.405C70.2035 106.805 71.012 106.864 71.8606 106.585C72.7092 106.306 73.3241 105.777 73.7053 105C74.0887 104.229 74.1419 103.422 73.8649 102.581C73.5879 101.739 73.0652 101.119 72.2967 100.719Z" fill="#262626"/>
<path d="M63.0241 100.455L63.5614 100.398L60.2759 110.522L59.7385 110.578L63.0241 100.455Z" fill="#262626"/>
</svg>
