<svg width="21" height="20" viewBox="0 0 21 20" fill="none" xmlns="http://www.w3.org/2000/svg">
<g opacity="0.6">
<path d="M10.5 1.6665V14.9998M10.5 14.9998V18.3332M10.5 14.9998L13 17.4998M10.5 14.9998L8 17.4998M13 2.49984L10.5 4.99984L8 2.49984" stroke="#262626" stroke-linecap="round"/>
<path d="M3.28319 5.83385L6.16995 7.50052M6.16995 7.50052L14.8302 12.5005M6.16995 7.50052L5.25488 4.08545M6.16995 7.50052L2.75488 8.41558M14.8302 12.5005L17.717 14.1672M14.8302 12.5005L18.2453 11.5854M14.8302 12.5005L15.7453 15.9156" stroke="#262626" stroke-linecap="round"/>
<path d="M17.7167 5.83385L14.8299 7.50052M14.8299 7.50052L6.1697 12.5005M14.8299 7.50052L15.745 4.08545M14.8299 7.50052L18.245 8.41558M6.1697 12.5005L3.28295 14.1672M6.1697 12.5005L2.75464 11.5854M6.1697 12.5005L5.25464 15.9156" stroke="#262626" stroke-linecap="round"/>
</g>
</svg>
