<svg width="32" height="32" viewBox="0 0 32 32" fill="none" xmlns="http://www.w3.org/2000/svg">
<mask id="mask0_534_8" style="mask-type:alpha" maskUnits="userSpaceOnUse" x="0" y="0" width="32" height="32">
<rect width="32" height="32" fill="#56C64F"/>
</mask>
<g mask="url(#mask0_534_8)">
<g opacity="0.3">
<path d="M4.00011 -2V6.60736M4.00011 6.60736V8.7592M4.00011 6.60736L5.61399 8.22124M4.00011 6.60736L2.38623 8.22124M5.61399 -1.46204L4.00011 0.151841L2.38623 -1.46204" stroke="white" stroke-linecap="round"/>
<path d="M-0.658949 0.689841L1.2046 1.76576M1.2046 1.76576L6.79525 4.99351M1.2046 1.76576L0.613881 -0.438843M1.2046 1.76576L-1 2.35649M6.79525 4.99351L8.6588 6.06943M6.79525 4.99351L8.99987 4.40278M6.79525 4.99351L7.38599 7.19813" stroke="white" stroke-linecap="round"/>
<path d="M8.65877 0.689841L6.79522 1.76576M6.79522 1.76576L1.2046 4.99351M6.79522 1.76576L7.38596 -0.438843M6.79522 1.76576L8.99984 2.35649M1.2046 4.99351L-0.658949 6.06943M1.2046 4.99351L-1 4.40278M1.2046 4.99351L0.613881 7.19813" stroke="white" stroke-linecap="round"/>
</g>
<g opacity="0.3">
<path d="M27.9645 6V15.7822M27.9645 15.7822V18.2278M27.9645 15.7822L29.7987 17.6164M27.9645 15.7822L26.1304 17.6164M29.7987 6.61139L27.9645 8.44556L26.1304 6.61139" stroke="white" stroke-linecap="round"/>
<path d="M22.6698 9.05704L24.7878 10.2798M24.7878 10.2798L31.1415 13.9481M24.7878 10.2798L24.1164 7.77429M24.7878 10.2798L22.2822 10.9512M31.1415 13.9481L33.2594 15.1709M31.1415 13.9481L33.647 13.2768M31.1415 13.9481L31.8129 16.4537" stroke="white" stroke-linecap="round"/>
<path d="M33.2594 9.05704L31.1415 10.2798M31.1415 10.2798L24.7877 13.9481M31.1415 10.2798L31.8128 7.77429M31.1415 10.2798L33.647 10.9512M24.7877 13.9481L22.6698 15.1709M24.7877 13.9481L22.2822 13.2768M24.7877 13.9481L24.1164 16.4537" stroke="white" stroke-linecap="round"/>
</g>
<g opacity="0.4">
<path d="M8.21786 18V26.9822M8.21786 26.9822V29.2278M8.21786 26.9822L9.90203 28.6664M8.21786 26.9822L6.53369 28.6664M9.90203 18.5614L8.21786 20.2456L6.53369 18.5614" stroke="white" stroke-linecap="round"/>
<path d="M3.3559 20.807L5.30062 21.9298M5.30062 21.9298L11.1348 25.2981M5.30062 21.9298L4.68417 19.6292M5.30062 21.9298L3 22.5462M11.1348 25.2981L13.0795 26.4209M11.1348 25.2981L13.4354 24.6816M11.1348 25.2981L11.7512 27.5987" stroke="white" stroke-linecap="round"/>
<path d="M13.0794 20.807L11.1347 21.9298M11.1347 21.9298L5.30062 25.2981M11.1347 21.9298L11.7512 19.6292M11.1347 21.9298L13.4354 22.5462M5.30062 25.2981L3.3559 26.4209M5.30062 25.2981L3 24.6816M5.30062 25.2981L4.68417 27.5987" stroke="white" stroke-linecap="round"/>
</g>
</g>
</svg>
