<svg width="92" height="26" viewBox="0 0 92 26" fill="none" xmlns="http://www.w3.org/2000/svg">
<g clip-path="url(#clip0_686_2875)">
<path d="M32.8831 9.74744V6.73629C32.8831 2.73324 30.5804 0.359741 26.6837 0.359741C22.8223 0.359741 20.5905 2.66239 20.5905 6.73629V7.26767C20.5905 10.8456 21.6887 12.6877 24.4519 13.7859L26.0106 14.3527C28.7029 15.4509 29.4114 16.3365 29.4114 18.2495V19.7374C29.4114 21.6503 28.4195 22.7839 26.7191 22.7839C25.0541 22.7839 24.0622 21.6503 24.0622 19.7374V16.4782H20.5197V19.4894C20.5197 23.5279 22.7514 25.8659 26.6837 25.8659C30.6159 25.8659 32.9539 23.4925 32.9539 19.4894V18.8163C32.9539 15.1675 31.8912 13.4317 29.0217 12.3335L27.6047 11.8021C24.8061 10.6685 24.133 9.78287 24.133 7.8699V6.48832C24.133 4.57535 25.0895 3.44174 26.7191 3.44174C28.3486 3.44174 29.3406 4.57535 29.3406 6.48832V9.74744H32.8831ZM45.6162 0.713994H33.9259V3.79599H37.9998V25.5117H41.5423V3.79599H45.6162V0.713994ZM47.0557 0.713994V25.5117H52.9717C56.5851 25.5117 59.2774 23.7404 59.2774 19.3831V6.84257C59.2774 2.52068 56.5851 0.713994 52.9717 0.713994H47.0557ZM50.5982 3.79599H52.9363C54.4242 3.79599 55.6995 4.5045 55.6995 6.80714V19.4185C55.6995 21.7212 54.4242 22.4297 52.9363 22.4297H50.5982V3.79599ZM64.6775 0.678569H61.135V25.5117H64.6775V14.6716H65.2443L69.7434 25.5117H73.5339L68.1492 13.1128L72.9671 0.678569H69.1765L65.2443 11.5541H64.6775V0.678569ZM74.7654 0.713994V25.5117H78.3079V0.713994H74.7654ZM91.247 0.713994H79.5567V3.79599H83.6306V25.5117H87.1731V3.79599H91.247V0.713994Z" fill="#302B44"/>
<path d="M6.8983 24.9771L6.70007 25.5115H7.2701H9.31821H9.59407L9.69001 25.2528L18.6132 1.19541L18.8113 0.66095H18.2414H16.1933H15.9174L15.8215 0.919597L6.8983 24.9771Z" fill="#302B44" stroke="#302B44" stroke-width="0.793103"/>
<path d="M0.817864 24.9771L0.619629 25.5115H1.18966H3.23777H3.51363L3.60957 25.2528L12.5327 1.19541L12.731 0.66095H12.1609H10.1128H9.83696L9.74102 0.919597L0.817864 24.9771Z" fill="#302B44" stroke="#302B44" stroke-width="0.793103"/>
</g>
<defs>
<clipPath id="clip0_686_2875">
<rect width="92" height="25.908" fill="white"/>
</clipPath>
</defs>
</svg>
