<svg width="24" height="24" viewBox="0 0 24 24" fill="none" xmlns="http://www.w3.org/2000/svg">
<path d="M22 18.9231C22 19.7391 21.6758 20.5218 21.0988 21.0988C20.5218 21.6758 19.7391 22 18.9231 22H5.07692C4.26087 22 3.47824 21.6758 2.90121 21.0988C2.32417 20.5218 2 19.7391 2 18.9231V5.07692C2 4.26087 2.32417 3.47824 2.90121 2.90121C3.47824 2.32417 4.26087 2 5.07692 2H18.9231C19.7391 2 20.5218 2.32417 21.0988 2.90121C21.6758 3.47824 22 4.26087 22 5.07692V18.9231Z" fill="#D32D27"/>
<path d="M17.3847 10.5102H13.5386V6.66406H10.4616V10.5102H6.61548V13.5387H10.4616V17.4333H13.5386V13.5387H17.3847V10.5102Z" fill="white"/>
</svg>
