<svg width="46" height="46" viewBox="0 0 46 46" fill="none" xmlns="http://www.w3.org/2000/svg">
<path d="M19.0469 2.7706C19.0469 2.7706 12.5458 0.891073 10.1415 3.53967C7.73733 6.18826 7.61514 9.31482 7.37436 11.2411C7.13358 13.1673 8.2153 17.257 8.93764 19.0611C9.65999 20.8651 10.8639 23.8731 10.7417 26.0401C10.6195 28.2072 11.0148 33.7847 11.2233 35.064C11.694 37.9534 13.8719 43.247 16.1575 43.8472C18.4431 44.4473 19.1655 43.3656 19.1655 41.08C19.1655 38.7944 19.8878 25.7994 23.9775 26.2809C28.0672 26.7589 27.8264 31.5709 27.9486 33.9787C28.0672 36.3865 29.1633 44.1886 31.2081 43.9478C33.253 43.707 35.7686 38.3092 35.8908 33.7379C36.013 29.1667 34.809 27.1219 35.8908 23.6323C36.9725 20.1428 38.658 16.7754 38.658 13.1637C38.658 10.3606 38.8197 5.77139 36.0094 3.53967C33.4578 1.51279 31.6609 2.0267 30.3528 2.09498C27.0897 2.26748 25.2856 4.57107 19.0469 2.7706Z" fill="#E1E7EA"/>
<path d="M24.1321 8.64328C25.6702 8.64328 31.2585 5.9336 30.6009 5.2436C29.5982 4.19063 25.3037 6.54813 23.7009 6.44391C22.0262 6.3361 20.2976 5.65328 18.6804 5.47719C18.1234 5.4161 17.4082 5.59578 18.0156 6.31094C18.4576 6.82844 22.594 8.64328 24.1321 8.64328Z" fill="#95CBDE"/>
<path d="M18.0298 8.68237C18.842 9.22143 19.6506 9.90065 19.9058 10.8422C19.9417 10.9752 19.9669 11.1189 19.9201 11.2519C19.877 11.3705 19.78 11.4639 19.6794 11.5394C19.1942 11.8988 18.5653 11.9922 17.9616 11.9994C16.2545 12.0174 14.5475 11.4172 13.2286 10.3355C12.3948 9.65268 10.5081 6.91065 12.6356 6.63393C14.3966 6.40034 16.6355 7.76237 18.0298 8.68237ZM32.6851 7.30956C33.0841 7.18378 33.5512 7.08315 33.8962 7.32034C34.0544 7.42815 34.1622 7.59706 34.2376 7.77315C34.518 8.42362 34.3814 9.19987 34.022 9.81081C33.6626 10.4217 33.102 10.8889 32.5198 11.295C31.6466 11.8988 30.6762 12.3875 29.6341 12.5852C28.5919 12.7828 27.467 12.6642 26.5506 12.1288C26.432 12.0605 26.3134 11.9778 26.2487 11.8592C26.1086 11.5969 26.2847 11.2735 26.5075 11.0794C28.3403 9.49456 30.3492 8.05346 32.6851 7.30956Z" fill="white"/>
</svg>
