<svg width="38" height="38" viewBox="0 0 38 38" fill="none" xmlns="http://www.w3.org/2000/svg">
<rect width="38" height="38" rx="8" fill="#26D044"/>
<path fill-rule="evenodd" clip-rule="evenodd" d="M27.5031 10.4878C25.247 8.23989 22.2467 7.00137 19.0501 7C12.4635 7 7.10279 12.3347 7.10014 18.8919C7.09934 20.9879 7.64948 23.0338 8.69527 24.8374L7 31L13.3348 29.3462C15.0802 30.2937 17.0453 30.7931 19.0452 30.7938H19.0502C25.6361 30.7938 30.9972 25.4584 31 18.9011C31.0011 15.7236 29.7592 12.7357 27.5031 10.4878ZM19.0502 28.7853H19.0462C17.264 28.7847 15.5159 28.3081 13.991 27.4075L13.6283 27.1934L9.86915 28.1747L10.8725 24.5271L10.6364 24.1529C9.64219 22.5793 9.11699 20.7603 9.1178 18.8924C9.11998 13.4425 13.5755 9.00858 19.0542 9.00858C21.707 9.0095 24.2009 10.039 26.0761 11.9075C27.9513 13.7759 28.9833 16.2593 28.9822 18.9006C28.98 24.351 24.5245 28.7853 19.0502 28.7853ZM24.4982 21.3821C24.1996 21.2334 22.7317 20.5145 22.458 20.4153C22.1843 20.3163 21.9852 20.2667 21.7862 20.5642C21.5872 20.8617 21.0148 21.5309 20.8407 21.7293C20.6665 21.9275 20.4923 21.9525 20.1938 21.8036C19.8951 21.655 18.9331 21.3411 17.7926 20.3287C16.905 19.5408 16.3058 18.5677 16.1316 18.2701C15.9574 17.9726 16.113 17.8118 16.2626 17.6637C16.3968 17.5305 16.5611 17.3165 16.7105 17.143C16.8598 16.9696 16.9095 16.8455 17.0091 16.6472C17.1086 16.4489 17.0589 16.2754 16.9841 16.1267C16.9095 15.9779 16.3123 14.5152 16.0635 13.9202C15.8212 13.3409 15.575 13.4192 15.3918 13.4101C15.2178 13.4015 15.0185 13.3996 14.8194 13.3996C14.6204 13.3996 14.297 13.4739 14.0232 13.7714C13.7496 14.0689 12.9782 14.7879 12.9782 16.2505C12.9782 17.7132 14.0481 19.1261 14.1974 19.3245C14.3466 19.5228 16.3029 22.5242 19.2981 23.8115C20.0103 24.1177 20.5666 24.3004 21.0002 24.4375C21.7156 24.6637 22.3665 24.6317 22.8809 24.5552C23.4546 24.4699 24.6474 23.8363 24.8962 23.1422C25.145 22.448 25.145 21.853 25.0704 21.7291C24.9958 21.6053 24.7968 21.5309 24.4982 21.3821Z" fill="white"/>
</svg>
