<?xml version="1.0"?>
<svg xmlns="http://www.w3.org/2000/svg" xmlns:xlink="http://www.w3.org/1999/xlink" version="1.1" xml:space="preserve">
  <defs>

    <symbol id="loader" width="100%" height="100%" viewBox="22 22 44 44">
      <circle cx="44" cy="44" r="20.2" fill="none" stroke="currentColor" stroke-width="4"></circle>
    </symbol>

    <symbol id="burger" width="100%" height="100%" viewBox="0 0 48 48">
      <path d="M41,14H7a2,2,0,0,1,0-4H41A2,2,0,0,1,41,14Z" fill="currentColor" />
      <path d="M41,26H7a2,2,0,0,1,0-4H41A2,2,0,0,1,41,26Z" fill="currentColor" />
      <path d="M41,38H7a2,2,0,0,1,0-4H41A2,2,0,0,1,41,38Z" fill="currentColor" />
    </symbol>

    <symbol id="close" width="100%" height="100%" viewBox="0 0 16 16">
      <path d="M1 15L15 1M1 1L15 15" stroke="currentColor" stroke-width="2" stroke-linecap="round" stroke-linejoin="round" />
    </symbol>

    <symbol id="success" width="100%" height="100%" viewBox="0 0 68 68">
      <path fill-rule="evenodd" clip-rule="evenodd" d="M34 68C52.7777 68 68 52.7777 68 34C68 15.2223 52.7777 0 34 0C15.2223 0 0 15.2223 0 34C0 52.7777 15.2223 68 34 68ZM49.7552 28.5052C51.4149 26.8455 51.4149 24.1545 49.7552 22.4948C48.0955 20.8351 45.4045 20.8351 43.7448 22.4948L29.75 36.4896L24.2552 30.9948C22.5955 29.3351 19.9045 29.3351 18.2448 30.9948C16.5851 32.6545 16.5851 35.3455 18.2448 37.0052L26.7448 45.5052C28.4045 47.1649 31.0955 47.1649 32.7552 45.5052L49.7552 28.5052Z" fill="currentColor" />
    </symbol>

    <symbol id="geo" width="100%" height="100%" viewBox="0 0 20 20">
      <path fill-rule="evenodd" clip-rule="evenodd" d="M5.0505 4.05025C7.78417 1.31658 12.2163 1.31658 14.95 4.05025C17.6837 6.78392 17.6837 11.2161 14.95 13.9497L10.0002 18.8995L5.0505 13.9497C2.31683 11.2161 2.31683 6.78392 5.0505 4.05025ZM10.0002 11C11.1048 11 12.0002 10.1046 12.0002 9C12.0002 7.89543 11.1048 7 10.0002 7C8.89568 7 8.00024 7.89543 8.00024 9C8.00024 10.1046 8.89568 11 10.0002 11Z" fill="currentColor" />
    </symbol>

    <symbol id="clock" width="100%" height="100%" viewBox="0 0 20 20">
      <path fill-rule="evenodd" clip-rule="evenodd" d="M10 18C14.4183 18 18 14.4183 18 10C18 5.58172 14.4183 2 10 2C5.58172 2 2 5.58172 2 10C2 14.4183 5.58172 18 10 18ZM11 6C11 5.44772 10.5523 5 10 5C9.44772 5 9 5.44772 9 6V10C9 10.2652 9.10536 10.5196 9.29289 10.7071L12.1213 13.5355C12.5118 13.9261 13.145 13.9261 13.5355 13.5355C13.9261 13.145 13.9261 12.5118 13.5355 12.1213L11 9.58579V6Z" fill="currentColor" />
    </symbol>

    <symbol id="tel" width="100%" height="100%" viewBox="0 0 20 20">
      <path d="M2.00024 3C2.00024 2.44772 2.44796 2 3.00024 2H5.15312C5.64196 2 6.05915 2.35341 6.13951 2.8356L6.87882 7.27147C6.951 7.70451 6.7323 8.13397 6.33964 8.3303L4.7915 9.10437C5.9078 11.8783 8.12192 14.0924 10.8959 15.2087L11.6699 13.6606C11.8663 13.2679 12.2957 13.0492 12.7288 13.1214L17.1646 13.8607C17.6468 13.9411 18.0002 14.3583 18.0002 14.8471V17C18.0002 17.5523 17.5525 18 17.0002 18H15.0002C7.82054 18 2.00024 12.1797 2.00024 5V3Z" fill="currentColor" />
    </symbol>

    <symbol id="arrow-left" width="100%" height="100%" viewBox="0 0 11 18">
      <path d="M3.76777 9L9.88388 2.88388C10.372 2.39573 10.372 1.60427 9.88388 1.11612C9.39573 0.627961 8.60427 0.627961 8.11612 1.11612L1.11612 8.11612C0.62796 8.60427 0.62796 9.39573 1.11612 9.88388L8.11612 16.8839C8.60427 17.372 9.39573 17.372 9.88388 16.8839C10.372 16.3957 10.372 15.6043 9.88388 15.1161L3.76777 9Z" fill="currentColor" />
    </symbol>

    <symbol id="arrow-right" width="100%" height="100%" viewBox="0 0 11 18">
      <path d="M7.23223 9L1.11612 2.88388C0.627961 2.39573 0.627961 1.60427 1.11612 1.11612C1.60427 0.627961 2.39573 0.627961 2.88388 1.11612L9.88388 8.11612C10.372 8.60427 10.372 9.39573 9.88388 9.88388L2.88388 16.8839C2.39573 17.372 1.60427 17.372 1.11612 16.8839C0.627961 16.3957 0.627961 15.6043 1.11612 15.1161L7.23223 9Z" fill="currentColor" />
    </symbol>

    <symbol id="play" width="100%" height="100%" viewBox="0 0 44 40">
      <path d="M16.0906 8.65821C14.8363 7.96579 13.2991 8.87308 13.2991 10.3058V29.4399C13.2991 30.8727 14.8363 31.78 16.0906 31.0875L33.4211 21.5205C34.7177 20.8047 34.7177 18.941 33.4211 18.2253L16.0906 8.65821Z" fill="currentColor" />
    </symbol>

  </defs>
</svg>