<?xml version="1.0"?>
<svg xmlns="http://www.w3.org/2000/svg" xmlns:xlink="http://www.w3.org/1999/xlink" version="1.1" xml:space="preserve">
  <defs>

    <symbol id="loader" width="100%" height="100%" viewBox="22 22 44 44">
      <circle cx="44" cy="44" r="20.2" fill="none" stroke="currentColor" stroke-width="4"></circle>
    </symbol>

    <symbol id="burger" width="100%" height="100%" viewBox="0 0 48 48">
      <path d="M41,14H7a2,2,0,0,1,0-4H41A2,2,0,0,1,41,14Z" fill="currentColor" />
      <path d="M41,26H7a2,2,0,0,1,0-4H41A2,2,0,0,1,41,26Z" fill="currentColor" />
      <path d="M41,38H7a2,2,0,0,1,0-4H41A2,2,0,0,1,41,38Z" fill="currentColor" />
    </symbol>

    <symbol id="close" width="100%" height="100%" viewBox="0 0 16 16">
      <path d="M1 15L15 1M1 1L15 15" stroke="currentColor" stroke-width="2" stroke-linecap="round" stroke-linejoin="round" />
    </symbol>

    <symbol id="success" width="100%" height="100%" viewBox="0 0 301 301">
      <path fill-rule="evenodd" clip-rule="evenodd" d="M150.5 270.9C216.995 270.9 270.9 216.995 270.9 150.5C270.9 84.0045 216.995 30.0996 150.5 30.0996C84.0045 30.0996 30.0996 84.0045 30.0996 150.5C30.0996 216.995 84.0045 270.9 150.5 270.9ZM206.292 131.042C212.169 125.164 212.169 115.635 206.292 109.758C200.414 103.88 190.885 103.88 185.008 109.758L135.45 159.316L115.992 139.858C110.114 133.98 100.585 133.98 94.7076 139.858C88.8303 145.735 88.8303 155.264 94.7076 161.142L124.808 191.242C130.685 197.119 140.214 197.119 146.092 191.242L206.292 131.042Z" fill="currentColor" />
    </symbol>

    <symbol id="geo" width="100%" height="100%" viewBox="0 0 20 20">
      <path fill-rule="evenodd" clip-rule="evenodd" d="M5.0505 4.05025C7.78417 1.31658 12.2163 1.31658 14.95 4.05025C17.6837 6.78392 17.6837 11.2161 14.95 13.9497L10.0002 18.8995L5.0505 13.9497C2.31683 11.2161 2.31683 6.78392 5.0505 4.05025ZM10.0002 11C11.1048 11 12.0002 10.1046 12.0002 9C12.0002 7.89543 11.1048 7 10.0002 7C8.89568 7 8.00024 7.89543 8.00024 9C8.00024 10.1046 8.89568 11 10.0002 11Z" fill="currentColor" />
    </symbol>

    <symbol id="email" width="100%" height="100%" viewBox="0 0 24 24">
      <path d="M2.4039 7.20203L11.9998 12L21.5959 7.20197C21.5235 5.94155 20.4785 4.94177 19.1999 4.94177H4.7999C3.52132 4.94177 2.47626 5.94158 2.4039 7.20203Z" fill="currentColor" />
      <path d="M21.5999 9.74149L11.9998 14.5415L2.3999 9.74155V16.8C2.3999 18.1255 3.47442 19.2 4.7999 19.2H19.1999C20.5254 19.2 21.5999 18.1255 21.5999 16.8V9.74149Z" fill="currentColor" />
    </symbol>

    <symbol id="clock" width="100%" height="100%" viewBox="0 0 20 20">
      <path fill-rule="evenodd" clip-rule="evenodd" d="M10 18C14.4183 18 18 14.4183 18 10C18 5.58172 14.4183 2 10 2C5.58172 2 2 5.58172 2 10C2 14.4183 5.58172 18 10 18ZM11 6C11 5.44772 10.5523 5 10 5C9.44772 5 9 5.44772 9 6V10C9 10.2652 9.10536 10.5196 9.29289 10.7071L12.1213 13.5355C12.5118 13.9261 13.145 13.9261 13.5355 13.5355C13.9261 13.145 13.9261 12.5118 13.5355 12.1213L11 9.58579V6Z" fill="currentColor" />
    </symbol>

    <symbol id="tel" width="100%" height="100%" viewBox="0 0 20 20">
      <path d="M2.00024 3C2.00024 2.44772 2.44796 2 3.00024 2H5.15312C5.64196 2 6.05915 2.35341 6.13951 2.8356L6.87882 7.27147C6.951 7.70451 6.7323 8.13397 6.33964 8.3303L4.7915 9.10437C5.9078 11.8783 8.12192 14.0924 10.8959 15.2087L11.6699 13.6606C11.8663 13.2679 12.2957 13.0492 12.7288 13.1214L17.1646 13.8607C17.6468 13.9411 18.0002 14.3583 18.0002 14.8471V17C18.0002 17.5523 17.5525 18 17.0002 18H15.0002C7.82054 18 2.00024 12.1797 2.00024 5V3Z" fill="currentColor" />
    </symbol>

    <symbol id="arrow-left" width="100%" height="100%" viewBox="0 0 11 18">
      <path d="M3.76777 9L9.88388 2.88388C10.372 2.39573 10.372 1.60427 9.88388 1.11612C9.39573 0.627961 8.60427 0.627961 8.11612 1.11612L1.11612 8.11612C0.62796 8.60427 0.62796 9.39573 1.11612 9.88388L8.11612 16.8839C8.60427 17.372 9.39573 17.372 9.88388 16.8839C10.372 16.3957 10.372 15.6043 9.88388 15.1161L3.76777 9Z" fill="currentColor" />
    </symbol>

    <symbol id="arrow-right" width="100%" height="100%" viewBox="0 0 11 18">
      <path d="M7.23223 9L1.11612 2.88388C0.627961 2.39573 0.627961 1.60427 1.11612 1.11612C1.60427 0.627961 2.39573 0.627961 2.88388 1.11612L9.88388 8.11612C10.372 8.60427 10.372 9.39573 9.88388 9.88388L2.88388 16.8839C2.39573 17.372 1.60427 17.372 1.11612 16.8839C0.627961 16.3957 0.627961 15.6043 1.11612 15.1161L7.23223 9Z" fill="currentColor" />
    </symbol>

    <symbol id="play" width="100%" height="100%" viewBox="0 0 44 40">
      <path d="M16.0906 8.65821C14.8363 7.96579 13.2991 8.87308 13.2991 10.3058V29.4399C13.2991 30.8727 14.8363 31.78 16.0906 31.0875L33.4211 21.5205C34.7177 20.8047 34.7177 18.941 33.4211 18.2253L16.0906 8.65821Z" fill="currentColor" />
    </symbol>

    <symbol id="check" width="100%" height="100%" viewBox="0 0 24 24">
      <path d="M12 21C16.9706 21 21 16.9706 21 12C21 7.02944 16.9706 3 12 3C7.02944 3 3 7.02944 3 12C3 16.9706 7.02944 21 12 21Z" fill="transparent" stroke="currentColor" stroke-width="2" stroke-linecap="round" stroke-linejoin="round" />
      <path d="M9 12L11 14L15 10" fill="transparent" stroke="currentColor" stroke-width="2" stroke-linecap="round" stroke-linejoin="round" />
    </symbol>

    <symbol id="calendar" width="100%" height="100%" viewBox="0 0 24 24">
      <path fill-rule="evenodd" clip-rule="evenodd" d="M7.1999 2.3999C6.53716 2.3999 5.9999 2.93716 5.9999 3.5999V4.7999H4.7999C3.47442 4.7999 2.3999 5.87442 2.3999 7.1999V19.1999C2.3999 20.5254 3.47442 21.5999 4.7999 21.5999H19.1999C20.5254 21.5999 21.5999 20.5254 21.5999 19.1999V7.1999C21.5999 5.87442 20.5254 4.7999 19.1999 4.7999H17.9999V3.5999C17.9999 2.93716 17.4626 2.3999 16.7999 2.3999C16.1372 2.3999 15.5999 2.93716 15.5999 3.5999V4.7999H8.3999V3.5999C8.3999 2.93716 7.86264 2.3999 7.1999 2.3999ZM7.1999 8.3999C6.53716 8.3999 5.9999 8.93716 5.9999 9.5999C5.9999 10.2626 6.53716 10.7999 7.1999 10.7999H16.7999C17.4626 10.7999 17.9999 10.2626 17.9999 9.5999C17.9999 8.93716 17.4626 8.3999 16.7999 8.3999H7.1999Z" fill="currentColor" />
    </symbol>

    <symbol id="user" width="100%" height="100%" viewBox="0 0 24 24">
      <path d="M11.9996 10.8001C13.9878 10.8001 15.5996 9.18832 15.5996 7.2001C15.5996 5.21187 13.9878 3.6001 11.9996 3.6001C10.0114 3.6001 8.39961 5.21187 8.39961 7.2001C8.39961 9.18832 10.0114 10.8001 11.9996 10.8001Z" fill="currentColor" />
      <path d="M3.59961 21.6001C3.59961 16.9609 7.36042 13.2001 11.9996 13.2001C16.6388 13.2001 20.3996 16.9609 20.3996 21.6001H3.59961Z" fill="currentColor" />
    </symbol>

  </defs>
</svg>