<?xml version="1.0" standalone="no"?>
<!DOCTYPE svg PUBLIC "-//W3C//DTD SVG 20010904//EN"
 "http://www.w3.org/TR/2001/REC-SVG-20010904/DTD/svg10.dtd">
<svg version="1.0" xmlns="http://www.w3.org/2000/svg"
 width="260.000000pt" height="260.000000pt" viewBox="0 0 260.000000 260.000000"
 preserveAspectRatio="xMidYMid meet">
<metadata>
Created by potrace 1.14, written by Peter Selinger 2001-2017
</metadata>
<g transform="translate(0.000000,260.000000) scale(0.100000,-0.100000)"
fill="#000000" stroke="none">
<path d="M712 2028 c38 -95 72 -179 75 -185 9 -24 39 1 245 203 76 74 140 139
143 144 4 6 -94 10 -264 10 l-270 0 71 -172z"/>
<path d="M1493 2192 c-45 -5 -42 -23 15 -85 110 -120 276 -277 292 -277 4 0
26 46 49 103 23 56 46 111 51 122 5 11 20 48 34 83 l25 63 -217 -3 c-119 -1
-232 -4 -249 -6z"/>
<path d="M1105 1977 l-190 -192 35 -6 c45 -7 637 -3 669 4 13 4 26 9 29 11 3
3 -16 29 -41 58 -56 66 -301 318 -308 317 -2 0 -89 -86 -194 -192z"/>
<path d="M544 2123 c-26 -24 -102 -117 -142 -175 -83 -119 -101 -153 -92 -162
22 -22 383 -16 406 7 7 6 -83 254 -109 300 -26 48 -37 53 -63 30z"/>
<path d="M1988 2088 c-38 -79 -100 -248 -101 -277 -3 -35 31 -40 227 -36 178
5 186 5 186 16 0 10 -101 150 -173 239 -63 78 -95 110 -107 110 -4 0 -19 -24
-32 -52z"/>
<path d="M1157 1714 c-1 -1 -43 -4 -94 -7 -94 -6 -113 -10 -113 -28 0 -27 227
-449 308 -572 21 -31 27 -35 40 -25 23 20 102 142 200 308 117 201 159 287
146 300 -14 14 -116 22 -312 24 -95 1 -174 1 -175 0z"/>
<path d="M1928 1712 c-17 -3 -23 -21 -34 -97 -3 -22 -14 -94 -25 -160 -11 -66
-22 -131 -24 -145 -2 -14 -11 -68 -20 -120 -9 -52 -18 -115 -21 -140 -2 -25
-6 -54 -8 -65 -2 -11 -9 -63 -16 -115 -6 -52 -13 -106 -16 -120 -2 -14 -7 -52
-10 -85 -10 -101 -17 -76 -9 35 4 58 8 119 10 135 2 17 6 71 10 120 4 50 8
110 10 135 2 25 7 90 10 145 13 246 16 282 20 305 9 45 9 129 1 137 -11 12
-38 -25 -127 -173 -174 -293 -299 -529 -299 -565 0 -60 303 -529 342 -529 13
0 188 368 378 795 96 216 200 468 200 485 0 5 -15 12 -33 15 -35 7 -311 12
-339 7z m-191 -1174 c-3 -7 -5 -2 -5 12 0 14 2 19 5 13 2 -7 2 -19 0 -25z"/>
<path d="M318 1704 c-10 -3 -18 -9 -18 -13 0 -21 182 -455 320 -766 194 -435
238 -525 253 -519 29 12 254 340 312 453 41 81 37 100 -40 241 -168 309 -330
580 -346 580 -5 0 -10 -15 -10 -32 -2 -42 -2 -31 5 -118 7 -75 11 -156 21
-350 3 -58 7 -134 10 -170 2 -36 7 -105 10 -155 3 -49 8 -115 10 -145 2 -30 6
-91 9 -135 l5 -80 -14 90 c-7 50 -16 117 -20 150 -3 33 -12 107 -20 165 -8 58
-16 128 -20 155 -3 28 -8 61 -10 75 -3 14 -7 42 -9 62 -3 21 -9 63 -15 95 -5
32 -13 76 -16 98 -15 106 -54 314 -58 315 -23 4 -347 7 -359 4z"/>
</g>
</svg>
